<svg width="27" height="31" fill="none" xmlns="http://www.w3.org/2000/svg"><g opacity=".8" filter="url(#filter0_d)"><path d="M10.375 11.458H8.292v2.084h2.083v-2.084zm4.167 0h-2.084v2.084h2.084v-2.084zm4.166 0h-2.083v2.084h2.083v-2.084zm2.084-7.291H19.75V2.083h-2.083v2.084H9.333V2.083H7.25v2.084H6.208A2.074 2.074 0 004.135 6.25l-.01 14.583a2.083 2.083 0 002.083 2.084h14.584a2.09 2.09 0 002.083-2.084V6.25a2.09 2.09 0 00-2.083-2.083zm0 16.666H6.208V9.375h14.584v11.458z" fill="#000"/></g><defs><filter id="filter0_d" x="-3" y="0" width="33" height="33" filterUnits="userSpaceOnUse" color-interpolation-filters="sRGB"><feFlood flood-opacity="0" result="BackgroundImageFix"/><feColorMatrix in="SourceAlpha" values="0 0 0 0 0 0 0 0 0 0 0 0 0 0 0 0 0 0 127 0"/><feOffset dy="4"/><feGaussianBlur stdDeviation="2"/><feColorMatrix values="0 0 0 0 0 0 0 0 0 0 0 0 0 0 0 0 0 0 0.25 0"/><feBlend in2="BackgroundImageFix" result="effect1_dropShadow"/><feBlend in="SourceGraphic" in2="effect1_dropShadow" result="shape"/></filter></defs></svg>