<svg width="29" height="31" fill="none" xmlns="http://www.w3.org/2000/svg"><g filter="url(#filter0_d)"><path d="M17.875 12.5c0-1.875-1.5-3.375-3.375-3.375a3.361 3.361 0 00-3.375 3.375c0 1.875 1.5 3.375 3.375 3.375s3.375-1.5 3.375-3.375zm1.75 0c0 2.875-2.25 5.125-5.125 5.125s-5.125-2.25-5.125-5.125 2.25-5.125 5.125-5.125 5.125 2.25 5.125 5.125zM21 7.125c0 .75-.5 1.25-1.25 1.25s-1.25-.5-1.25-1.25.5-1.25 1.25-1.25S21 6.5 21 7.125zM14.5 4.25c-1.5 0-4.625-.125-5.875.375C7.75 5 7 5.75 6.75 6.625c-.5 1.25-.375 4.375-.375 5.875s-.125 4.625.375 5.875c.25.875 1 1.625 1.875 1.875 1.25.5 4.5.375 5.875.375s4.625.125 5.875-.375c.875-.375 1.5-1 1.875-1.875.5-1.375.375-4.5.375-5.875s.125-4.625-.375-5.875C22 5.75 21.25 5 20.375 4.75c-1.25-.625-4.375-.5-5.875-.5zm10 8.25v4.125c0 1.5-.5 3-1.625 4.25C21.75 22 20.25 22.5 18.625 22.5h-8.25c-1.5 0-3-.5-4.25-1.625a6.41 6.41 0 01-1.625-4.25v-8.25a6.41 6.41 0 011.625-4.25c1.25-1 2.75-1.625 4.25-1.625h8.25c1.5 0 3 .5 4.25 1.625a6.41 6.41 0 011.625 4.25V12.5z" fill="#000"/></g><defs><filter id="filter0_d" x="-2" y="0" width="33" height="33" filterUnits="userSpaceOnUse" color-interpolation-filters="sRGB"><feFlood flood-opacity="0" result="BackgroundImageFix"/><feColorMatrix in="SourceAlpha" values="0 0 0 0 0 0 0 0 0 0 0 0 0 0 0 0 0 0 127 0"/><feOffset dy="4"/><feGaussianBlur stdDeviation="2"/><feColorMatrix values="0 0 0 0 0 0 0 0 0 0 0 0 0 0 0 0 0 0 0.25 0"/><feBlend in2="BackgroundImageFix" result="effect1_dropShadow"/><feBlend in="SourceGraphic" in2="effect1_dropShadow" result="shape"/></filter></defs></svg>