<svg width="26" height="29" fill="none" xmlns="http://www.w3.org/2000/svg"><path d="M23.214 1.813H2.786C1.248 1.813 0 3.03 0 4.53v19.94c0 1.5 1.248 2.718 2.786 2.718h20.428c1.538 0 2.786-1.217 2.786-2.718V4.53c0-1.5-1.248-2.718-2.786-2.718zm-9.065 19.79c0 2.47-1.486 3.596-3.65 3.596-1.956 0-3.088-.985-3.668-2.18l1.99-1.173c.383.663.732 1.224 1.573 1.224.801 0 1.312-.306 1.312-1.501v-8.105h2.443v8.139zm5.78 3.596c-2.269 0-3.737-1.053-4.45-2.435l1.99-1.122c.522.833 1.207 1.45 2.408 1.45 1.01 0 1.66-.492 1.66-1.178 0-.815-.662-1.104-1.782-1.586l-.609-.255c-1.764-.73-2.93-1.654-2.93-3.596 0-1.79 1.398-3.15 3.574-3.15 1.556 0 2.67.527 3.47 1.91l-1.903 1.189c-.418-.73-.87-1.02-1.573-1.02-.713 0-1.166.442-1.166 1.02 0 .714.453 1.002 1.503 1.45l.61.255c2.077.866 3.244 1.756 3.244 3.75 0 2.14-1.73 3.318-4.046 3.318z" fill="#4164CC"/></svg>