<svg width="33" height="33" fill="none" xmlns="http://www.w3.org/2000/svg"><path d="M27.5 24.75L30.236 22l.014-17.875H2.75V22l2.75 2.75H0v2.75h33v-2.75h-5.5zM5.5 6.875h22V22h-22V6.875zm11 19.25a1.379 1.379 0 01-1.375-1.375c0-.756.619-1.375 1.375-1.375s1.375.619 1.375 1.375-.619 1.375-1.375 1.375z" fill="#4164CC"/><path d="M13.919 12.356c.087.569.175.7.175 1.269 0 .35-.656.656-.656.656v.438s.656.306.656.656c0 .569-.088.7-.175 1.269-.132.919.35 1.356.787 1.356h.919v-.875s-.787.087-.787-.438c0-.393.087-.393.175-1.268.043-.394-.22-.7-.482-.919.263-.219.525-.481.481-.875-.13-.875-.175-.875-.175-1.269 0-.525.788-.481.788-.481V11h-.919c-.481 0-.918.438-.787 1.356zm5.162 0c-.087.569-.175.7-.175 1.269 0 .35.657.656.657.656v.438s-.657.306-.657.656c0 .569.088.7.175 1.269.131.919-.35 1.356-.787 1.356h-.919v-.875s.788.087.788-.438c0-.393-.088-.393-.175-1.268-.044-.394.218-.7.48-.919-.262-.219-.524-.481-.48-.875.087-.875.175-.875.175-1.269 0-.525-.788-.481-.788-.481V11h.919c.481 0 .918.438.787 1.356z" fill="#4164CC"/></svg>