<svg width="28" height="25" fill="none" xmlns="http://www.w3.org/2000/svg"><path d="M23.022 8.095a18.72 18.72 0 00-.902-.285c.051-.208.098-.414.14-.616.682-3.32.236-5.995-1.288-6.876-1.46-.844-3.85.036-6.262 2.14-.238.209-.47.423-.697.642-.152-.146-.307-.29-.464-.43C11.021.42 8.486-.528 6.964.356c-1.46.847-1.891 3.361-1.277 6.508.061.312.13.622.207.93-.359.102-.705.21-1.036.326C1.893 9.156 0 10.78 0 12.464c0 1.74 2.032 3.484 5.12 4.542.25.086.503.165.757.238-.083.332-.156.666-.22 1.002-.585 3.092-.128 5.547 1.327 6.388 1.504.87 4.027-.024 6.483-2.177.2-.175.394-.355.585-.54.245.238.498.47.757.693 2.38 2.053 4.73 2.882 6.184 2.038 1.501-.872 1.99-3.51 1.356-6.718a15.65 15.65 0 00-.168-.75c.177-.053.351-.107.52-.164C25.912 15.95 28 14.226 28 12.464c0-1.69-1.954-3.325-4.978-4.37zm-.697 7.783c-.153.051-.31.1-.47.148a28.181 28.181 0 00-1.418-3.556A28.195 28.195 0 0021.8 8.966c.286.083.564.17.832.263 2.591.894 4.172 2.216 4.172 3.235 0 1.085-1.707 2.493-4.479 3.414zm-1.15 2.285c.28 1.418.32 2.701.135 3.704-.167.902-.502 1.502-.917 1.743-.882.512-2.77-.154-4.804-1.91-.24-.207-.476-.422-.704-.643a28.184 28.184 0 002.347-2.987 27.845 27.845 0 003.792-.586c.057.23.108.457.151.679zM9.545 23.52c-.861.306-1.548.314-1.963.075-.883-.511-1.25-2.483-.75-5.127.06-.312.128-.623.205-.932 1.147.255 2.416.438 3.773.548a29.18 29.18 0 002.404 2.977c-.174.168-.352.333-.534.492-1.086.952-2.175 1.628-3.134 1.968zm-4.038-7.65c-1.365-.467-2.493-1.075-3.266-1.739-.694-.596-1.045-1.188-1.045-1.668 0-1.022 1.52-2.326 4.055-3.212.308-.108.63-.21.964-.304.35 1.142.81 2.337 1.365 3.545a29.257 29.257 0 00-1.382 3.595 14.652 14.652 0 01-.691-.217zm1.354-9.238c-.526-2.696-.177-4.73.703-5.24.936-.544 3.008.231 5.19 2.174.143.127.283.257.421.39a28.74 28.74 0 00-2.385 2.958 29.155 29.155 0 00-3.737.582 17.613 17.613 0 01-.192-.864zm12.078 2.99a38.033 38.033 0 00-.852-1.404c.894.113 1.75.263 2.553.447a25.671 25.671 0 01-.896 2.417c-.258-.492-.527-.98-.805-1.46zm-4.925-4.81a25.66 25.66 0 011.647 1.994 35.136 35.136 0 00-3.31 0 26.444 26.444 0 011.662-1.994zM9.056 9.631c-.274.477-.538.961-.79 1.451a26.519 26.519 0 01-.89-2.429c.8-.179 1.651-.325 2.539-.437-.297.465-.583.936-.859 1.415zm.884 7.165a25.372 25.372 0 01-2.58-.415c.247-.8.552-1.633.907-2.479a35.284 35.284 0 001.673 2.894zm4.107 3.403a26.848 26.848 0 01-1.685-2.021c.536.02 1.082.031 1.638.031.57 0 1.135-.012 1.69-.037a25.512 25.512 0 01-1.643 2.027zm5.709-6.34c.374.855.69 1.683.94 2.47-.812.185-1.689.335-2.612.446a39.614 39.614 0 001.672-2.916zm-1.849.889a39.28 39.28 0 01-1.343 2.172c-.853.06-1.709.09-2.564.09-.871 0-1.719-.027-2.535-.08a33.746 33.746 0 01-2.563-4.438 33.67 33.67 0 012.549-4.43 33.588 33.588 0 015.104 0c.474.705.924 1.426 1.349 2.161.426.738.829 1.489 1.206 2.252-.373.772-.775 1.53-1.203 2.273zm2.468-13.391c.938.542 1.302 2.728.713 5.595-.038.183-.08.369-.126.558a28.57 28.57 0 00-3.744-.593 28.156 28.156 0 00-2.367-2.962c.21-.202.425-.4.644-.592 2.068-1.803 4-2.515 4.88-2.006zM14 9.957c1.38 0 2.5 1.122 2.5 2.507A2.503 2.503 0 0114 14.97c-1.38 0-2.5-1.122-2.5-2.506A2.503 2.503 0 0114 9.957z" fill="#4164CC"/><path stroke="#fff" d="M.5.5h27v24H.5z"/></svg>