<svg width="29" height="31" viewBox="0 0 29 31" fill="none" xmlns="http://www.w3.org/2000/svg">
<g filter="url(#filter0_d)">
<path d="M17.875 12.5C17.875 10.625 16.375 9.125 14.5 9.125C12.625 9.125 11.125 10.625 11.125 12.5C11.125 14.375 12.625 15.875 14.5 15.875C16.375 15.875 17.875 14.375 17.875 12.5ZM19.625 12.5C19.625 15.375 17.375 17.625 14.5 17.625C11.625 17.625 9.375 15.375 9.375 12.5C9.375 9.625 11.625 7.375 14.5 7.375C17.375 7.375 19.625 9.625 19.625 12.5ZM21 7.125C21 7.875 20.5 8.375 19.75 8.375C19 8.375 18.5 7.875 18.5 7.125C18.5 6.375 19 5.875 19.75 5.875C20.5 5.875 21 6.5 21 7.125ZM14.5 4.25C13 4.25 9.875 4.125 8.625 4.625C7.75 5 7 5.75 6.75 6.625C6.25 7.875 6.375 11 6.375 12.5C6.375 14 6.25 17.125 6.75 18.375C7 19.25 7.75 20 8.625 20.25C9.875 20.75 13.125 20.625 14.5 20.625C15.875 20.625 19.125 20.75 20.375 20.25C21.25 19.875 21.875 19.25 22.25 18.375C22.75 17 22.625 13.875 22.625 12.5C22.625 11.125 22.75 7.875 22.25 6.625C22 5.75 21.25 5 20.375 4.75C19.125 4.125 16 4.25 14.5 4.25ZM24.5 12.5V16.625C24.5 18.125 24 19.625 22.875 20.875C21.75 22 20.25 22.5 18.625 22.5H10.375C8.875 22.5 7.375 22 6.125 20.875C5.125 19.75 4.5 18.25 4.5 16.625V12.5V8.375C4.5 6.75 5.125 5.25 6.125 4.125C7.375 3.125 8.875 2.5 10.375 2.5H18.625C20.125 2.5 21.625 3 22.875 4.125C23.875 5.25 24.5 6.75 24.5 8.375V12.5Z" fill="black"/>
</g>
<defs>
<filter id="filter0_d" x="-2" y="0" width="33" height="33" filterUnits="userSpaceOnUse" color-interpolation-filters="sRGB">
<feFlood flood-opacity="0" result="BackgroundImageFix"/>
<feColorMatrix in="SourceAlpha" type="matrix" values="0 0 0 0 0 0 0 0 0 0 0 0 0 0 0 0 0 0 127 0"/>
<feOffset dy="4"/>
<feGaussianBlur stdDeviation="2"/>
<feColorMatrix type="matrix" values="0 0 0 0 0 0 0 0 0 0 0 0 0 0 0 0 0 0 0.25 0"/>
<feBlend mode="normal" in2="BackgroundImageFix" result="effect1_dropShadow"/>
<feBlend mode="normal" in="SourceGraphic" in2="effect1_dropShadow" result="shape"/>
</filter>
</defs>
</svg>
