<svg width="24" height="24" viewBox="0 0 24 24" fill="none" xmlns="http://www.w3.org/2000/svg">
<g opacity="0.8">
<path fill-rule="evenodd" clip-rule="evenodd" d="M9 7.83V12H12C12.7956 12 13.5587 11.6839 14.1213 11.1213C14.6839 10.5587 15 9.79565 15 9V7.83C14.3325 7.59409 13.7699 7.1298 13.4116 6.51919C13.0534 5.90858 12.9225 5.19098 13.0422 4.49321C13.1619 3.79545 13.5244 3.16246 14.0656 2.70613C14.6069 2.2498 15.292 1.99951 16 1.99951C16.708 1.99951 17.3931 2.2498 17.9344 2.70613C18.4756 3.16246 18.8381 3.79545 18.9578 4.49321C19.0775 5.19098 18.9466 5.90858 18.5884 6.51919C18.2301 7.1298 17.6675 7.59409 17 7.83V9C17 9.65661 16.8707 10.3068 16.6194 10.9134C16.3681 11.52 15.9998 12.0712 15.5355 12.5355C15.0712 12.9998 14.52 13.3681 13.9134 13.6194C13.3068 13.8707 12.6566 14 12 14H9V16.17C9.66749 16.4059 10.2301 16.8702 10.5884 17.4808C10.9466 18.0914 11.0775 18.809 10.9578 19.5068C10.8381 20.2046 10.4756 20.8375 9.93437 21.2939C9.39311 21.7502 8.70795 22.0005 8 22.0005C7.29205 22.0005 6.60689 21.7502 6.06563 21.2939C5.52437 20.8375 5.16186 20.2046 5.04219 19.5068C4.92251 18.809 5.05337 18.0914 5.41164 17.4808C5.76991 16.8702 6.33251 16.4059 7 16.17V7.83C6.33251 7.59409 5.76991 7.1298 5.41164 6.51919C5.05337 5.90858 4.92251 5.19098 5.04219 4.49321C5.16186 3.79545 5.52437 3.16246 6.06563 2.70613C6.60689 2.2498 7.29205 1.99951 8 1.99951C8.70795 1.99951 9.39311 2.2498 9.93437 2.70613C10.4756 3.16246 10.8381 3.79545 10.9578 4.49321C11.0775 5.19098 10.9466 5.90858 10.5884 6.51919C10.2301 7.1298 9.66749 7.59409 9 7.83ZM8 20C8.26522 20 8.51957 19.8946 8.70711 19.7071C8.89464 19.5196 9 19.2652 9 19C9 18.7348 8.89464 18.4804 8.70711 18.2929C8.51957 18.1054 8.26522 18 8 18C7.73478 18 7.48043 18.1054 7.29289 18.2929C7.10536 18.4804 7 18.7348 7 19C7 19.2652 7.10536 19.5196 7.29289 19.7071C7.48043 19.8946 7.73478 20 8 20ZM16 6C16.2652 6 16.5196 5.89464 16.7071 5.70711C16.8946 5.51957 17 5.26522 17 5C17 4.73478 16.8946 4.48043 16.7071 4.29289C16.5196 4.10536 16.2652 4 16 4C15.7348 4 15.4804 4.10536 15.2929 4.29289C15.1054 4.48043 15 4.73478 15 5C15 5.26522 15.1054 5.51957 15.2929 5.70711C15.4804 5.89464 15.7348 6 16 6ZM8 6C8.26522 6 8.51957 5.89464 8.70711 5.70711C8.89464 5.51957 9 5.26522 9 5C9 4.73478 8.89464 4.48043 8.70711 4.29289C8.51957 4.10536 8.26522 4 8 4C7.73478 4 7.48043 4.10536 7.29289 4.29289C7.10536 4.48043 7 4.73478 7 5C7 5.26522 7.10536 5.51957 7.29289 5.70711C7.48043 5.89464 7.73478 6 8 6Z" fill="black"/>
</g>
</svg>
