<svg width="26" height="29" viewBox="0 0 26 29" fill="none" xmlns="http://www.w3.org/2000/svg">
<path d="M23.2143 1.8125H2.78571C1.24777 1.8125 0 3.03027 0 4.53125V24.4688C0 25.9697 1.24777 27.1875 2.78571 27.1875H23.2143C24.7522 27.1875 26 25.9697 26 24.4688V4.53125C26 3.03027 24.7522 1.8125 23.2143 1.8125ZM14.1491 21.6027C14.1491 24.0723 12.6634 25.1994 10.4987 25.1994C8.54286 25.1994 7.41116 24.2139 6.8308 23.0187L8.82143 21.8463C9.20446 22.509 9.55268 23.0697 10.3942 23.0697C11.1951 23.0697 11.7058 22.7639 11.7058 21.5687V13.4635H14.1491V21.6027ZM19.9295 25.1994C17.6603 25.1994 16.192 24.1459 15.4781 22.7639L17.4688 21.6424C17.9911 22.475 18.6759 23.0924 19.8772 23.0924C20.8871 23.0924 21.5371 22.5996 21.5371 21.9143C21.5371 21.0986 20.8754 20.8098 19.7554 20.3283L19.146 20.0734C17.3817 19.3428 16.2152 18.4195 16.2152 16.4768C16.2152 14.6869 17.6138 13.3275 19.7902 13.3275C21.3455 13.3275 22.4598 13.8543 23.2607 15.2363L21.3571 16.4258C20.9393 15.6951 20.4866 15.4062 19.7844 15.4062C19.0705 15.4062 18.6179 15.848 18.6179 16.4258C18.6179 17.1395 19.0705 17.4283 20.121 17.8758L20.7304 18.1307C22.808 18.9973 23.9746 19.8865 23.9746 21.8803C23.9746 24.0213 22.2451 25.1994 19.9295 25.1994Z" fill="#4164CC"/>
</svg>
