<svg width="33" height="33" viewBox="0 0 33 33" fill="none" xmlns="http://www.w3.org/2000/svg">
<path d="M27.5 24.75L30.2362 22L30.25 4.125H2.75V22L5.5 24.75H0V27.5H33V24.75H27.5ZM5.5 6.875H27.5V22H5.5V6.875ZM16.5 26.125C15.7437 26.125 15.125 25.5063 15.125 24.75C15.125 23.9937 15.7437 23.375 16.5 23.375C17.2563 23.375 17.875 23.9937 17.875 24.75C17.875 25.5063 17.2563 26.125 16.5 26.125Z" fill="#4164CC"/>
<path d="M13.9187 12.3562C14.0062 12.925 14.0938 13.0563 14.0938 13.625C14.0938 13.975 13.4375 14.2812 13.4375 14.2812V14.7188C13.4375 14.7188 14.0938 15.025 14.0938 15.375C14.0938 15.9437 14.0062 16.075 13.9187 16.6437C13.7875 17.5625 14.2688 18 14.7063 18H15.625V17.125C15.625 17.125 14.8375 17.2125 14.8375 16.6875C14.8375 16.2937 14.925 16.2938 15.0125 15.4188C15.0562 15.025 14.7938 14.7188 14.5312 14.5C14.7938 14.2812 15.0562 14.0187 15.0125 13.625C14.8812 12.75 14.8375 12.75 14.8375 12.3562C14.8375 11.8312 15.625 11.875 15.625 11.875V11H14.7063C14.225 11 13.7875 11.4375 13.9187 12.3562Z" fill="#4164CC"/>
<path d="M19.0812 12.3562C18.9937 12.925 18.9062 13.0563 18.9062 13.625C18.9062 13.975 19.5625 14.2812 19.5625 14.2812V14.7188C19.5625 14.7188 18.9062 15.025 18.9062 15.375C18.9062 15.9437 18.9937 16.075 19.0812 16.6437C19.2125 17.5625 18.7313 18 18.2938 18H17.375V17.125C17.375 17.125 18.1625 17.2125 18.1625 16.6875C18.1625 16.2937 18.075 16.2938 17.9875 15.4188C17.9437 15.025 18.2063 14.7188 18.4688 14.5C18.2063 14.2812 17.9437 14.0187 17.9875 13.625C18.075 12.75 18.1625 12.75 18.1625 12.3562C18.1625 11.8312 17.375 11.875 17.375 11.875V11H18.2938C18.775 11 19.2125 11.4375 19.0812 12.3562Z" fill="#4164CC"/>
</svg>
