<svg width="28" height="25" viewBox="0 0 28 25" fill="none" xmlns="http://www.w3.org/2000/svg">
<path d="M23.0216 8.0949C22.7236 7.99241 22.4231 7.89746 22.1203 7.81014C22.1712 7.60181 22.218 7.396 22.2596 7.1938C22.9418 3.87352 22.4958 1.19863 20.9723 0.317927C19.5116 -0.526371 17.1228 0.354002 14.7102 2.45894C14.4724 2.66676 14.2399 2.88057 14.0129 3.10016C13.8609 2.95414 13.7063 2.81095 13.549 2.67067C11.0205 0.420011 8.48608 -0.528564 6.96423 0.35466C5.50484 1.20159 5.0727 3.71617 5.68695 6.86288C5.74806 7.17453 5.81707 7.48457 5.89389 7.79271C5.53514 7.8949 5.18897 8.00367 4.85767 8.11946C1.89317 9.15565 0 10.7794 0 12.4638C0 14.2033 2.03241 15.9482 5.12006 17.0062C5.37038 17.0916 5.62279 17.1708 5.87705 17.2436C5.79447 17.5755 5.72116 17.9096 5.6572 18.2456C5.07161 21.3377 5.52891 23.7928 6.98436 24.6344C8.48761 25.5035 11.0107 24.6103 13.4673 22.4573C13.6666 22.2823 13.8614 22.1023 14.0516 21.9175C14.2975 22.1553 14.5498 22.3861 14.8085 22.6098C17.1883 24.6627 19.5385 25.4916 20.9926 24.6478C22.4944 23.7761 22.9825 21.1387 22.3488 17.9298C22.2989 17.6784 22.2429 17.4282 22.1809 17.1795C22.3581 17.1269 22.532 17.0728 22.7015 17.0164C25.9115 15.9503 28 14.2266 28 12.4638C28 10.7733 26.0457 9.13854 23.0216 8.0949ZM22.3254 15.8782C22.1723 15.929 22.0152 15.978 21.8551 16.0257C21.5007 14.901 21.0225 13.7052 20.4373 12.4696C20.9957 11.2634 21.4555 10.0828 21.8 8.96551C22.0864 9.04863 22.3643 9.13624 22.6323 9.22867C25.2234 10.123 26.8039 11.445 26.8039 12.4638C26.8039 13.5488 25.097 14.9575 22.3254 15.8782ZM21.1754 18.1627C21.4557 19.5815 21.4956 20.8644 21.31 21.8674C21.1433 22.7686 20.8079 23.3694 20.3932 23.61C19.5109 24.1221 17.6238 23.4565 15.5887 21.7008C15.3481 21.4929 15.1133 21.2782 14.8846 21.0572C15.6737 20.1922 16.4621 19.1866 17.2317 18.0697C18.5853 17.9493 19.8641 17.7524 21.0238 17.4836C21.0809 17.7146 21.1317 17.9412 21.1754 18.1627ZM9.54581 23.5215C8.68372 23.8267 7.99706 23.8355 7.58198 23.5956C6.69878 23.0849 6.33161 21.1135 6.83244 18.4692C6.89197 18.1568 6.96014 17.846 7.03686 17.5373C8.18377 17.7917 9.45328 17.9746 10.8101 18.0849C11.5849 19.1778 12.3961 20.1823 13.2137 21.0619C13.04 21.2304 12.8621 21.3947 12.6803 21.5544C11.5939 22.5064 10.5052 23.1819 9.54581 23.5215ZM5.50703 15.8715C4.1417 15.4037 3.01416 14.7957 2.24131 14.1322C1.54678 13.536 1.19623 12.944 1.19623 12.4638C1.19623 11.4416 2.71622 10.1379 5.25142 9.25181C5.55909 9.14435 5.88109 9.04293 6.21523 8.94775C6.56567 10.0903 7.02527 11.2849 7.57991 12.4929C7.01805 13.7188 6.55189 14.9325 6.19806 16.0885C5.96598 16.0219 5.73557 15.9495 5.50703 15.8715ZM6.86088 6.63251C6.33467 3.93657 6.68412 1.90291 7.56361 1.39249C8.5003 0.848848 10.5716 1.62396 12.7549 3.56738C12.8972 3.69439 13.0373 3.82398 13.175 3.95608C12.3615 4.83185 11.5577 5.82889 10.7897 6.9153C9.47286 7.03766 8.21231 7.23415 7.05337 7.49742C6.98197 7.21082 6.91778 6.92246 6.86088 6.63262V6.63251ZM18.9388 9.62242C18.6651 9.1484 18.3812 8.68035 18.0873 8.21859C18.9807 8.33185 19.8367 8.48218 20.6405 8.66595C20.3992 9.44139 20.0984 10.252 19.7444 11.0832C19.4856 10.5909 19.217 10.1039 18.9388 9.62242ZM14.0135 4.8131C14.5651 5.41233 15.1177 6.0813 15.6612 6.80718C14.5587 6.75498 13.4543 6.75476 12.3518 6.80652C12.8959 6.08733 13.4531 5.41924 14.0135 4.8131ZM9.05647 9.63065C8.78176 10.1083 8.5182 10.5922 8.26602 11.0822C7.91777 10.254 7.61972 9.43964 7.37636 8.65323C8.17523 8.47407 9.02716 8.32758 9.91484 8.21639C9.61772 8.68097 9.33151 9.15248 9.05647 9.63054V9.63065ZM9.94033 16.7964C9.02322 16.6938 8.1585 16.5549 7.35984 16.3805C7.60703 15.5801 7.91164 14.7484 8.26744 13.9025C8.52062 14.3928 8.78527 14.877 9.06117 15.3549C9.34489 15.8461 9.63867 16.3272 9.94033 16.7964ZM14.0465 20.1988C13.4795 19.5857 12.914 18.9073 12.3618 18.1777C12.8979 18.1987 13.4445 18.2095 14 18.2095C14.5707 18.2095 15.1349 18.1967 15.6902 18.1719C15.1449 18.9146 14.5945 19.594 14.0465 20.1988ZM19.7556 13.8593C20.1299 14.7145 20.4454 15.5418 20.6958 16.3286C19.884 16.5143 19.0075 16.6639 18.084 16.7749C18.3799 16.3046 18.6665 15.8284 18.9435 15.3467C19.2252 14.857 19.496 14.361 19.7556 13.8593ZM17.9074 14.7475C17.4833 15.4862 17.0353 16.2108 16.5642 16.9202C15.7108 16.9808 14.8555 17.0109 14 17.0105C13.1286 17.0105 12.2811 16.9833 11.4649 16.9302C10.9815 16.2224 10.525 15.4965 10.0963 14.7541H10.0964C9.66976 14.0156 9.27123 13.2612 8.9017 12.4924C9.27029 11.7234 9.6676 10.9686 10.0928 10.2295L10.0927 10.2297C10.5177 9.49043 10.9706 8.76765 11.4504 8.06288C12.283 7.99972 13.1369 7.96683 13.9999 7.96683H14C14.8669 7.96683 15.7219 8.00005 16.5543 8.06365C17.0293 8.76736 17.4792 9.48766 17.9035 10.2232C18.3301 10.9606 18.7327 11.7117 19.1105 12.4754C18.7365 13.2468 18.3352 14.0047 17.9074 14.7475ZM20.3749 1.35674C21.3125 1.89885 21.6771 4.08492 21.088 6.9517C21.0504 7.13459 21.0082 7.32089 20.9623 7.50981C19.8005 7.24095 18.5391 7.04106 17.2184 6.91683C16.449 5.81847 15.6518 4.8199 14.8515 3.95543C15.0612 3.75274 15.276 3.55531 15.4955 3.36332C17.5627 1.55992 19.4947 0.847861 20.3749 1.35674ZM14 9.95718C15.3809 9.95718 16.5003 11.0794 16.5003 12.4638C16.5003 13.8481 15.3809 14.9703 14 14.9703C12.6191 14.9703 11.4997 13.8481 11.4997 12.4638C11.4997 11.0794 12.6191 9.95718 14 9.95718Z" fill="#4164CC"/>
<rect x="0.5" y="0.5" width="27" height="24" stroke="white"/>
</svg>
