<svg width="32" height="32" viewBox="0 0 32 32" fill="none" xmlns="http://www.w3.org/2000/svg">
<path d="M21.3333 2.66666H10.6667C9.95942 2.66666 9.28115 2.94761 8.78105 3.4477C8.28095 3.9478 8 4.62608 8 5.33332V26.6667C8 27.3739 8.28095 28.0522 8.78105 28.5523C9.28115 29.0524 9.95942 29.3333 10.6667 29.3333H21.3333C22.0406 29.3333 22.7189 29.0524 23.219 28.5523C23.719 28.0522 24 27.3739 24 26.6667V5.33332C24 4.62608 23.719 3.9478 23.219 3.4477C22.7189 2.94761 22.0406 2.66666 21.3333 2.66666ZM17.3333 28H14.6667V26.6667H17.3333V28ZM21.3333 25.3333H10.6667V6.66666H21.3333V25.3333Z" fill="#4164CC"/>
</svg>
